<svg width="32" height="32" viewBox="0 0 32 32" fill="none" xmlns="http://www.w3.org/2000/svg">
<rect width="32" height="32" rx="5" fill="#BEADFA"/>
<path d="M15.125 24H9.21094V8H15.1172C16.7474 8 18.151 8.32031 19.3281 8.96094C20.5104 9.59635 21.4219 10.513 22.0625 11.7109C22.7031 12.9036 23.0234 14.3307 23.0234 15.9922C23.0234 17.6589 22.7031 19.0911 22.0625 20.2891C21.4271 21.487 20.5182 22.4062 19.3359 23.0469C18.1536 23.6823 16.75 24 15.125 24ZM13.0781 20.7031H14.9766C15.8724 20.7031 16.6302 20.5521 17.25 20.25C17.875 19.9427 18.3464 19.4453 18.6641 18.7578C18.987 18.0651 19.1484 17.1432 19.1484 15.9922C19.1484 14.8411 18.987 13.9245 18.6641 13.2422C18.3411 12.5547 17.8646 12.0599 17.2344 11.7578C16.6094 11.4505 15.8385 11.2969 14.9219 11.2969H13.0781V20.7031Z" fill="#F5F5F5"/>
</svg>
