<svg width="57" height="57" viewBox="0 0 57 57" fill="none" xmlns="http://www.w3.org/2000/svg">
<g clip-path="url(#clip0_4_170)">
<path d="M57 28.5001C57 31.7368 57 34.8474 57 38.0421C55.2129 37.916 53.636 38.3154 52.4375 39.7236C51.6806 40.6273 51.2601 41.6782 51.3442 42.8342C51.3862 43.5067 51.5334 44.2213 51.8278 44.8309C52.1221 45.4404 52.5847 46.0078 53.0893 46.4492C53.6149 46.8696 54.2667 47.1848 54.9185 47.374C55.5703 47.5632 56.2852 47.5421 57 47.6052C57 50.7158 57 53.8264 57 57.0001C38.014 57.0001 19.0281 57.0001 2.9359e-05 57.0001C2.9359e-05 53.8685 2.9359e-05 50.7368 2.9359e-05 47.5211C1.76617 47.6472 3.34308 47.2479 4.54153 45.8397C5.31947 44.9359 5.69793 43.864 5.65588 42.666C5.61382 41.1948 5.00409 39.9968 3.86871 39.072C2.75436 38.1472 1.40873 37.9581 -0.0209961 38.0421C-0.0209961 34.8685 -0.0209961 31.7368 -0.0209961 28.5211C0.168233 28.5211 0.378487 28.5211 0.588742 28.5211C2.46001 28.5211 4.31025 28.5211 6.18151 28.5211C6.51792 28.5211 6.68612 28.437 6.87535 28.1218C7.12766 27.6804 7.46406 27.2811 7.8215 26.9238C10.7651 23.9603 13.7296 20.9968 16.6942 18.0543C16.9676 17.7811 17.0937 17.5078 17.0937 17.1295C17.0727 16.2888 17.0937 15.4271 17.0937 14.5654C17.0937 13.6196 16.7994 13.3253 15.8742 13.2833C12.2999 13.1151 9.48251 10.1517 9.50353 6.57865C9.52456 3.15276 12.2368 0.252319 15.685 0.0211244C19.0491 -0.21007 22.266 2.29104 22.6655 5.65387C22.8757 7.33528 22.7706 9.05873 22.7916 10.7612C22.7916 11.1185 22.7916 11.4548 22.9178 11.8961C23.2121 11.5809 23.5065 11.2446 23.8219 10.9293C24.789 9.96249 25.7142 8.95364 26.7444 8.04988C28.6787 6.32643 30.9285 5.84303 33.3885 6.62068C35.7854 7.39834 37.2571 9.07975 37.8038 11.5388C38.4135 14.2711 37.152 17.1085 34.7131 18.5798C32.2741 20.051 29.1623 19.7988 26.9967 17.9702C26.7865 17.8021 26.5972 17.5919 26.3449 17.4448C25.9454 17.2136 25.546 17.2767 25.2095 17.6129C24.4526 18.3486 23.7167 19.0842 22.9808 19.8408C22.8757 19.9459 22.7916 20.1351 22.7916 20.3032C22.7706 23.0145 22.7916 25.7258 22.7916 28.5001C34.2084 28.5001 45.5832 28.5001 57 28.5001ZM1.89232 55.0875C19.6588 55.0875 37.3833 55.0875 55.1288 55.0875C55.1288 54.0997 55.1288 53.1539 55.1288 52.2081C55.1288 51.2623 55.1288 50.3165 55.1288 49.3917C51.4073 48.6561 49.6411 45.9028 49.4309 43.3176C49.3047 41.8463 49.6411 40.4802 50.4401 39.2401C51.5334 37.5167 53.1313 36.5499 55.0867 36.1926C55.0867 34.2589 55.0867 32.3674 55.0867 30.4758C44.3007 30.4758 33.5567 30.4758 22.7916 30.4758C22.7916 31.5266 22.8126 32.5355 22.7916 33.5443C22.7075 36.4238 19.8691 38.6306 17.0727 37.937C17.0727 35.457 17.0727 32.9769 17.0727 30.4758C11.9845 30.4758 6.95945 30.4758 1.91335 30.4758C1.91335 32.4094 1.91335 34.301 1.91335 36.1716C5.38255 37.0753 7.46406 39.3663 7.59022 42.4138C7.65329 43.9061 7.27484 45.2722 6.43382 46.5123C5.34049 48.1096 3.80564 49.0344 1.89232 49.3707C1.89232 51.3043 1.89232 53.1749 1.89232 55.0875ZM20.8783 18.6218C20.8783 14.5023 20.9414 10.4669 20.8573 6.43152C20.7942 3.95143 18.5655 1.93373 16.1896 1.91272C13.6035 1.87068 11.4589 3.95143 11.3958 6.51559C11.3327 9.1428 13.3722 11.3076 16.0214 11.4127C17.8717 11.4758 18.986 12.6107 18.986 14.4603C18.986 15.8264 18.986 17.1716 18.986 18.5798C19.764 17.9072 20.1634 17.9072 20.8783 18.6218ZM22.7916 17.1716C22.8547 17.1926 22.9178 17.2346 22.9808 17.2556C23.2962 16.8983 23.6116 16.541 23.948 16.2048C24.6419 15.5112 25.5249 15.2169 26.45 15.4691C27.0388 15.6373 27.6275 16.0156 28.1111 16.4149C29.751 17.7811 32.0008 18.0123 33.7879 16.8983C35.5751 15.7844 36.4161 13.6406 35.8695 11.6019C34.9443 8.21803 30.6131 7.02002 27.9849 9.50011C26.2818 11.0975 24.6629 12.7789 23.0229 14.4393C22.9178 14.5444 22.8126 14.6915 22.8126 14.8386C22.7916 15.6163 22.7916 16.3939 22.7916 17.1716ZM19.007 35.8773C19.9532 35.7932 20.8993 34.5532 20.8993 33.2501C20.8783 28.7733 20.8783 24.3176 20.8783 19.8408C20.8783 19.7147 20.8573 19.5886 20.8573 19.5466C20.5209 19.6937 20.2055 19.9249 19.8901 19.9039C19.5958 19.9039 19.3014 19.6517 19.007 19.5045C19.007 24.9691 19.007 30.4337 19.007 35.8773ZM9.10405 28.5211C9.81892 28.5211 10.5548 28.5421 11.2907 28.5001C11.4799 28.5001 11.7112 28.395 11.8584 28.2479C13.5194 26.6085 15.1804 24.9481 16.8204 23.2877C16.9465 23.1616 17.0727 22.9935 17.0727 22.8463C17.0937 22.0687 17.0937 21.27 17.0937 20.5344C14.4235 23.2036 11.7743 25.8519 9.10405 28.5211ZM14.5286 28.4791C15.3276 28.4791 16.1896 28.4791 17.0727 28.4791C17.0727 27.5963 17.0727 26.7346 17.0727 25.957C16.2107 26.7977 15.3696 27.6384 14.5286 28.4791Z" fill="white"/>
<path d="M42.1771 34.6583C42.5135 35.0156 42.9341 35.4359 43.3125 35.8143C38.2664 40.8585 33.2203 45.9028 28.1532 50.968C27.7957 50.5897 27.3963 50.1483 27.0388 49.791C32.0639 44.7678 37.11 39.7236 42.1771 34.6583Z" fill="white"/>
<path d="M26.5972 38.0001C26.6182 35.8983 28.3423 34.2169 30.4448 34.2379C32.5053 34.259 34.2084 35.9614 34.2084 38.0421C34.2084 40.1439 32.4843 41.8463 30.3817 41.8463C28.2792 41.8043 26.5972 40.1019 26.5972 38.0001ZM32.2951 38.0001C32.274 36.9702 31.412 36.1295 30.3817 36.1295C29.3515 36.1295 28.4895 36.9913 28.4895 38.0211C28.4895 39.093 29.3725 39.9337 30.4238 39.9127C31.4751 39.8917 32.3161 39.03 32.2951 38.0001Z" fill="white"/>
<path d="M39.9064 43.7379C42.0089 43.7379 43.712 45.4404 43.733 47.5421C43.733 49.6439 42.0089 51.3463 39.9064 51.3463C37.8248 51.3463 36.1218 49.6439 36.1218 47.5632C36.1007 45.4614 37.8038 43.7379 39.9064 43.7379ZM39.9064 45.6295C38.8761 45.6295 38.0141 46.4913 38.0141 47.5211C38.0141 48.572 38.8971 49.4337 39.9484 49.4337C40.9787 49.4127 41.8197 48.53 41.7986 47.5211C41.7986 46.4702 40.9366 45.6295 39.9064 45.6295Z" fill="white"/>
<path d="M17.1357 39.9548C17.7665 39.9548 18.3342 39.9548 18.965 39.9548C18.965 40.5853 18.965 41.1738 18.965 41.8043C18.3552 41.8043 17.7665 41.8043 17.1357 41.8043C17.1357 41.1948 17.1357 40.6063 17.1357 39.9548Z" fill="white"/>
<path d="M17.1147 43.7589C17.7245 43.7589 18.3132 43.7589 18.944 43.7589C18.944 44.3474 18.944 44.957 18.944 45.5875C18.3552 45.5875 17.7455 45.5875 17.1147 45.5875C17.1147 44.999 17.1147 44.4105 17.1147 43.7589Z" fill="white"/>
<path d="M17.1147 49.3917C17.1147 48.7822 17.1147 48.1937 17.1147 47.5632C17.7455 47.5632 18.3342 47.5632 18.965 47.5632C18.965 48.1727 18.965 48.7612 18.965 49.3917C18.3763 49.3917 17.7665 49.3917 17.1147 49.3917Z" fill="white"/>
<path d="M18.965 51.3674C18.965 51.9769 18.965 52.5654 18.965 53.1959C18.3342 53.1959 17.7455 53.1959 17.1147 53.1959C17.1147 52.5864 17.1147 51.9979 17.1147 51.3674C17.7035 51.3674 18.3132 51.3674 18.965 51.3674Z" fill="white"/>
<path d="M16.1476 3.80431C17.7034 3.80431 18.986 5.08639 18.986 6.62068C18.986 8.19701 17.7034 9.50011 16.1265 9.50011C14.5706 9.50011 13.2881 8.23904 13.2881 6.68373C13.2671 5.10741 14.5496 3.80431 16.1476 3.80431ZM17.0727 6.6417C17.0517 6.13727 16.6311 5.71692 16.1265 5.71692C15.6219 5.71692 15.1804 6.13727 15.1804 6.66272C15.1804 7.18816 15.6219 7.65055 16.1686 7.60851C16.6732 7.5875 17.0937 7.14612 17.0727 6.6417Z" fill="white"/>
<path d="M31.2859 10.0676C32.8838 10.0676 34.1243 11.2866 34.1243 12.8629C34.1243 14.4393 32.8838 15.7003 31.3069 15.7213C29.7089 15.7213 28.4264 14.4603 28.4264 12.884C28.4474 11.2866 29.6879 10.0676 31.2859 10.0676ZM31.2859 11.9592C30.7602 11.9592 30.3397 12.3585 30.3397 12.884C30.3397 13.3884 30.7182 13.7877 31.2438 13.8087C31.7905 13.8298 32.1899 13.4514 32.211 12.905C32.232 12.3795 31.8115 11.9592 31.2859 11.9592Z" fill="white"/>
</g>
<defs>
<clipPath id="clip0_4_170">
<rect width="57" height="57" fill="white"/>
</clipPath>
</defs>
</svg>
