<svg width="74" height="48" viewBox="0 0 74 48" fill="none" xmlns="http://www.w3.org/2000/svg">
<g clip-path="url(#clip0_4_189)">
<path d="M74 32.8117C73.5953 33.2561 73.1521 33.7006 72.7666 34.1644C72.6318 34.319 72.5547 34.5702 72.5354 34.7827C72.5161 35.8842 72.5354 37.0049 72.5161 38.1064C72.4968 39.633 71.6682 40.4832 70.1458 40.4832C68.7969 40.4832 67.4479 40.4832 66.0411 40.4832C65.8291 37.9325 64.8463 35.8069 62.8036 34.261C61.3583 33.1595 59.7203 32.6185 57.8896 32.6378C55.712 32.6571 53.8427 33.4301 52.301 34.9373C50.7594 36.4252 50.0271 38.2996 49.8729 40.4446C42.338 40.4446 34.8609 40.4446 27.3453 40.4446C27.2682 38.0484 26.4396 36.0581 24.6088 34.5122C23.1057 33.2561 21.3713 32.6571 19.425 32.6185C17.9797 32.5798 16.6114 32.8697 15.3203 33.5267C14.0484 34.1837 13.0463 35.1305 12.2948 36.3479C11.5432 37.5847 11.2541 38.976 11.1963 40.4446C9.3078 40.4446 7.47707 40.4832 5.66561 40.4252C4.81769 40.4059 4.14321 39.5943 4.04686 38.7247C4.02759 38.4542 4.02759 38.203 4.02759 37.9325C4.02759 29.0049 4.00832 20.0967 4.00832 11.1692C4.00832 10.8793 4.00832 10.5895 4.00832 10.261C3.71925 10.2223 3.46873 10.1837 3.1604 10.145C3.1604 9.71991 3.1604 9.27547 3.1604 8.79238C3.41092 8.77305 3.68071 8.73441 4.00832 8.69576C4.00832 7.55566 4.00832 6.41557 4.00832 5.29479C4.00832 3.6716 4.72134 2.97595 6.34009 2.97595C19.5791 2.97595 32.8375 2.97595 46.0765 2.97595C47.6953 2.97595 48.4083 3.69093 48.4083 5.31412C48.4083 6.82136 48.4083 8.34793 48.4083 9.93247C48.7166 9.9518 49.0057 9.99045 49.2755 9.99045C52.4937 10.0677 55.7312 10.1644 58.9495 10.203C60.2599 10.2223 61.2234 10.7054 61.9943 11.7875C65.1739 16.174 68.3729 20.5605 71.6104 24.9083C72.2656 25.7779 72.7088 26.6281 72.5354 27.7296C72.4583 28.1933 72.6125 28.4832 73.0557 28.7731C73.4604 29.0436 73.6916 29.5847 74 29.9904C74 30.976 74 31.9035 74 32.8117ZM47.0015 39.0146C47.0015 38.6668 47.0015 38.4156 47.0015 38.145C47.0015 27.3045 46.9823 16.4446 46.9823 5.60397C46.9823 4.44455 46.9823 4.44455 45.8068 4.44455C32.7219 4.44455 19.6562 4.44455 6.57134 4.44455C6.37863 4.44455 6.14738 4.38658 5.99321 4.46388C5.78123 4.56049 5.4729 4.77305 5.4729 4.92764C5.43436 6.18368 5.45363 7.45904 5.45363 8.8117C10.6182 8.8117 15.6672 8.8117 20.7354 8.8117C20.7354 9.31412 20.7354 9.73924 20.7354 10.2223C15.6286 10.2223 10.5797 10.2223 5.45363 10.2223C5.45363 10.5702 5.45363 10.8407 5.45363 11.1305C5.45363 18.0291 5.4729 24.9083 5.4729 31.8069C5.4729 33.9518 5.4729 36.0967 5.4729 38.2417C5.4729 38.7247 5.58853 39.0339 6.14738 39.0339C7.24582 39.0146 8.36352 39.0532 9.46196 39.0146C9.6354 39.0146 9.90519 38.7634 9.94373 38.5702C11.389 31.1692 20.5427 28.889 25.7844 33.6233C27.3838 35.0532 28.3088 36.8697 28.675 38.9953C34.7838 39.0146 40.8349 39.0146 47.0015 39.0146ZM71.0708 27.3045C70.7239 27.3045 70.4349 27.3045 70.1651 27.3045C65.6557 27.3045 61.1656 27.3045 56.6562 27.3045C55.2302 27.3045 54.4594 26.5508 54.4594 25.1209C54.4401 22.203 54.4401 19.2851 54.4594 16.3673C54.4594 14.9373 55.2109 14.1837 56.6562 14.1644C58.1786 14.145 59.6818 14.1644 61.2041 14.1644C61.3969 14.1644 61.6088 14.1257 61.8786 14.1064C61.4932 13.5846 61.1463 13.1402 60.8573 12.6764C60.3948 11.9421 59.7588 11.6909 58.9109 11.6716C55.6349 11.633 52.3588 11.5363 49.0828 11.4784C48.8708 11.4784 48.6781 11.4977 48.5047 11.4977C48.5047 20.6958 48.5047 29.8165 48.5047 39.1305C50.5281 33.6813 53.3995 31.2658 57.7739 31.1885C59.7588 31.1499 61.5896 31.6716 63.2276 32.7731C65.463 34.261 66.7734 36.3866 67.3323 39.0146C68.3729 39.0146 69.3557 39.0146 70.3385 39.0146C70.8396 39.0146 71.0901 38.7054 71.0901 38.2417C71.1094 36.9663 71.0901 35.6909 71.0901 34.3962C69.7797 34.0871 69.0088 33.3528 69.0474 31.9808C69.0474 31.7103 69.0474 31.459 69.0474 31.1885C69.0474 29.3914 69.3557 28.947 71.0708 28.3286C71.0708 28.0388 71.0708 27.7296 71.0708 27.3045ZM70.4927 25.8745C67.9875 22.4542 65.5786 19.1692 63.1698 15.9035C63.0541 15.7296 62.7265 15.633 62.4953 15.633C60.5875 15.6136 58.6989 15.633 56.7911 15.6136C56.0974 15.5943 55.8661 15.8648 55.8661 16.5605C55.8854 19.3238 55.8661 22.1064 55.8854 24.8697C55.8854 25.7972 55.9818 25.8938 56.926 25.8938C61.1078 25.8938 65.2896 25.8938 69.4906 25.8938C69.7604 25.8745 70.0495 25.8745 70.4927 25.8745ZM70.4927 31.3624C70.4927 31.5557 70.4927 31.7489 70.4927 31.9421C70.512 32.7537 70.7047 32.947 71.5526 32.947C72.3427 32.9276 72.5547 32.7151 72.5739 31.9035C72.5739 31.5943 72.5739 31.2851 72.5739 30.9566C72.5739 30.0484 72.4005 29.8745 71.5526 29.8745C70.6661 29.8745 70.512 30.0291 70.512 30.9373C70.4927 31.0726 70.4927 31.2272 70.4927 31.3624Z" fill="white"/>
<path d="M0 8.79238C0.597396 8.79238 1.17552 8.79238 1.81146 8.79238C1.81146 9.31412 1.81146 9.71991 1.81146 10.2417C1.17552 10.2417 0.597396 10.2417 0 10.2417C0 9.75856 0 9.27547 0 8.79238Z" fill="white"/>
<path d="M19.3094 33.3721C23.3755 33.3914 26.7094 36.7151 26.6708 40.7151C26.6323 44.7731 23.2985 48.0194 19.1745 48.0001C15.0698 47.9808 11.7938 44.6571 11.8323 40.5798C11.8708 36.5605 15.2047 33.3528 19.3094 33.3721ZM19.2708 34.8214C15.9563 34.8214 13.2969 37.4107 13.2776 40.6571C13.2583 43.9421 15.937 46.5895 19.2708 46.5702C22.5469 46.5702 25.2448 43.9228 25.2641 40.6958C25.2448 37.4687 22.5662 34.8214 19.2708 34.8214Z" fill="white"/>
<path d="M65.3859 40.6571C65.4052 44.6764 62.1099 47.9808 58.0438 48.0001C53.9198 48.0388 50.5859 44.7731 50.5667 40.7151C50.5474 36.6764 53.8234 33.3914 57.9089 33.3721C62.0328 33.3528 65.3667 36.5991 65.3859 40.6571ZM57.9667 46.5702C61.262 46.5702 63.9406 43.9421 63.9599 40.6958C63.9792 37.4687 61.2813 34.8214 57.9859 34.802C54.6328 34.7827 51.9542 37.4107 51.9734 40.6958C52.012 43.9808 54.6714 46.5702 57.9667 46.5702Z" fill="white"/>
<path d="M15.5323 1.33344C15.5323 0.869672 15.5323 0.444551 15.5323 0.000106812C19.9453 0.000106812 24.3005 0.000106812 28.7135 0.000106812C28.7135 0.444551 28.7135 0.869672 28.7135 1.33344C24.3583 1.33344 19.9839 1.33344 15.5323 1.33344Z" fill="white"/>
<path d="M47.0594 43.5557C47.0594 44.0388 47.0594 44.4446 47.0594 44.889C42.6656 44.889 38.2911 44.889 33.8781 44.889C33.8781 44.4639 33.8781 44.0388 33.8781 43.5557C38.2526 43.5557 42.6078 43.5557 47.0594 43.5557Z" fill="white"/>
<path d="M32.0089 44.947C31.2188 44.947 30.5058 44.947 29.7349 44.947C29.7349 44.4832 29.7349 44.0581 29.7349 43.575C30.4865 43.575 31.2188 43.575 32.0089 43.575C32.0089 44.0001 32.0089 44.4445 32.0089 44.947Z" fill="white"/>
<path d="M11.4276 1.33344C11.4276 0.888996 11.4276 0.463875 11.4276 0.000106812C12.1792 0.000106812 12.9115 0.000106812 13.7016 0.000106812C13.7016 0.425228 13.7016 0.850348 13.7016 1.33344C12.9885 1.33344 12.2563 1.33344 11.4276 1.33344Z" fill="white"/>
<path d="M70.4927 31.3624C70.4927 31.2272 70.4927 31.0726 70.4927 30.9373C70.512 30.0291 70.6662 29.8745 71.5333 29.8745C72.4005 29.8745 72.5547 30.0484 72.5547 30.9566C72.5547 31.2658 72.5547 31.575 72.5547 31.9035C72.5547 32.7151 72.3234 32.9276 71.5333 32.947C70.7047 32.9663 70.4927 32.7731 70.4734 31.9421C70.4927 31.7489 70.4927 31.5557 70.4927 31.3624Z" fill="white"/>
<path d="M17.363 29.3914C17.363 28.9276 17.363 28.5218 17.363 28.0774C25.2833 28.0774 33.1844 28.0774 41.1432 28.0774C41.1432 28.5025 41.1432 28.9276 41.1432 29.3914C33.2422 29.3914 25.3412 29.3914 17.363 29.3914Z" fill="white"/>
<path d="M22.9323 19.6716C24.05 20.7151 23.8573 22.2223 24.4547 23.4397C23.3177 23.8069 23.0865 23.6909 22.8167 22.6281C22.7396 22.3189 22.6625 22.0291 22.5854 21.7199C22.2386 20.3286 21.9302 20.1161 20.3115 20.2513C20.3115 21.0629 20.3115 21.8938 20.3115 22.7247C20.3115 23.1885 20.2922 23.5943 19.6563 23.6136C19.0396 23.6136 18.9625 23.2465 18.9625 22.7634C18.9625 20.5412 18.9818 18.3383 18.9625 16.1161C18.9625 15.6716 19.0781 15.4397 19.5599 15.4397C20.3886 15.4397 21.2365 15.3624 22.0651 15.4397C23.0865 15.517 23.8573 16.0581 24.0886 17.1016C24.3198 18.1064 24.0115 18.9566 23.125 19.5557C23.0672 19.575 23.0094 19.6136 22.9323 19.6716ZM20.3115 19.0532C21.1979 19.1112 22.0844 19.2851 22.5854 18.4542C22.7974 18.1064 22.8167 17.4107 22.6047 17.0629C22.1037 16.232 21.2172 16.4252 20.3693 16.4832C20.35 16.7344 20.3308 16.947 20.3115 17.1595C20.3115 17.7779 20.3115 18.3962 20.3115 19.0532Z" fill="white"/>
<path d="M25.3219 23.5943C25.3219 20.8697 25.3219 18.203 25.3219 15.4397C26.7094 15.4397 28.0776 15.4204 29.4651 15.459C29.6 15.459 29.8698 15.8648 29.8313 16.0194C29.7735 16.232 29.5037 16.5025 29.2724 16.5412C28.7328 16.6185 28.174 16.5605 27.6151 16.5798C27.3068 16.5798 26.9985 16.5798 26.6323 16.5798C26.6323 17.3141 26.6323 18.0098 26.6323 18.7827C27.3839 18.7827 28.1162 18.7827 28.8677 18.7827C29.2917 18.7827 29.6771 18.802 29.6578 19.3624C29.6386 19.9035 29.2531 19.9421 28.8485 19.9421C28.1354 19.9421 27.4032 19.9421 26.6516 19.9421C26.6516 20.7924 26.6516 21.5653 26.6516 22.4735C27.4417 22.4735 28.2125 22.4735 29.0026 22.4735C29.2146 22.4735 29.4844 22.4349 29.6386 22.5315C29.8313 22.6475 30.024 22.9373 30.0047 23.1112C29.9854 23.2851 29.6964 23.5943 29.5229 23.5943C28.1547 23.6136 26.7479 23.5943 25.3219 23.5943Z" fill="white"/>
<path d="M32.4328 16.5605C32.4328 17.3528 32.4328 18.0291 32.4328 18.7634C33.2229 18.7634 33.9937 18.7634 34.7646 18.7634C35.15 18.7634 35.4583 18.8407 35.4776 19.2851C35.4969 19.7489 35.2078 19.9035 34.7838 19.9035C34.013 19.9035 33.2615 19.9035 32.4521 19.9035C32.4521 20.7731 32.4521 21.546 32.4521 22.4349C33.3193 22.4349 34.1479 22.4349 34.9766 22.4349C35.4198 22.4349 35.8437 22.4735 35.8245 23.0533C35.8052 23.6136 35.3812 23.5943 34.9958 23.5943C33.724 23.5943 32.4521 23.5943 31.1417 23.5943C31.1417 20.8504 31.1417 18.1644 31.1417 15.4011C32.4906 15.4011 33.801 15.3818 35.1115 15.4204C35.3042 15.4204 35.4776 15.7489 35.6703 15.9421C35.4583 16.1547 35.2463 16.5025 35.0151 16.5218C34.1672 16.5991 33.3193 16.5605 32.4328 16.5605Z" fill="white"/>
<path d="M14.6266 16.5605C14.6266 17.3721 14.6266 18.0871 14.6266 18.8987C15.3589 18.8987 16.0719 18.8987 16.7849 18.8987C17.2089 18.8987 17.5943 18.9566 17.575 19.4977C17.5558 19.9615 17.2089 20.0581 16.8042 20.0581C16.0912 20.0581 15.3782 20.0581 14.588 20.0581C14.588 21.0243 14.5688 21.9132 14.588 22.7827C14.6073 23.2851 14.4724 23.6136 13.875 23.6136C13.2776 23.5943 13.2584 23.2078 13.2584 22.7827C13.2584 20.5218 13.2584 18.261 13.2584 16.0001C13.2584 15.8455 13.2776 15.6716 13.2969 15.4397C14.6459 15.4397 15.9755 15.4204 17.286 15.459C17.4594 15.459 17.8063 15.8455 17.7677 15.9808C17.7099 16.2127 17.4209 16.5218 17.2089 16.5412C16.3802 16.5991 15.5323 16.5605 14.6266 16.5605Z" fill="white"/>
<path d="M14.8578 28.0581C14.8578 28.5025 14.8578 28.9083 14.8578 29.3334C14.7614 29.3721 14.6843 29.4107 14.588 29.4107C12.2755 29.4107 9.96299 29.4107 7.66976 29.4301C7.26508 29.4301 7.09164 29.2948 7.13018 28.889C7.14945 28.6378 7.13018 28.3673 7.13018 28.0581C9.71247 28.0581 12.2562 28.0581 14.8578 28.0581Z" fill="white"/>
<path d="M22.9516 40.6764C22.9709 42.6474 21.3328 44.3093 19.3479 44.3479C17.3438 44.3866 15.6479 42.7247 15.6479 40.7151C15.6287 38.7441 17.2667 37.0629 19.2516 37.0436C21.2365 37.0049 22.9323 38.6668 22.9516 40.6764ZM21.5255 40.6571C21.5063 39.459 20.4849 38.4542 19.2901 38.4542C18.0953 38.4542 17.074 39.4784 17.074 40.6571C17.074 41.8745 18.1339 42.9373 19.3287 42.8987C20.5235 42.8793 21.5255 41.8359 21.5255 40.6571Z" fill="white"/>
<path d="M61.6667 40.6764C61.6859 42.6474 60.0479 44.3093 58.063 44.3479C56.0781 44.3866 54.3823 42.7054 54.363 40.6958C54.3438 38.7247 55.9818 37.0629 57.9667 37.0243C59.9516 37.0049 61.6474 38.6668 61.6667 40.6764ZM57.9859 42.918C59.1615 42.9373 60.2021 41.9131 60.2406 40.7344C60.2792 39.5363 59.2193 38.4735 57.9859 38.4735C56.7911 38.4735 55.7891 39.4977 55.7891 40.6958C55.7891 41.8745 56.7911 42.8987 57.9859 42.918Z" fill="white"/>
</g>
<defs>
<clipPath id="clip0_4_189">
<rect width="74" height="48" fill="white"/>
</clipPath>
</defs>
</svg>
