<svg width="62" height="50" viewBox="0 0 62 50" fill="none" xmlns="http://www.w3.org/2000/svg">
<path d="M0.575437 3.4619C0.915245 2.16638 1.53115 1.04077 2.80543 0.488581C3.42133 0.212487 4.12218 0.0213445 4.8018 0.0213445C20.1993 0.000106487 35.5969 0.000106812 50.9944 0.000106812C53.5005 0.000106812 55.1783 1.74162 55.2208 4.29018C55.242 5.81932 55.2208 7.32722 55.2208 8.89883C56.0703 9.00502 56.8986 9.11121 57.7057 9.23864C60.0418 9.62092 61.486 11.5323 61.2736 13.911C60.7215 19.7727 60.1693 25.6556 59.6171 31.5385C59.1711 36.3171 58.6826 41.1169 58.2791 45.8954C58.0667 48.3166 55.9004 49.9306 53.4368 49.6333C47.8725 48.9962 42.2869 48.3803 36.7225 47.7431C30.9245 47.0848 25.1478 46.4264 19.3498 45.768C15.3571 45.322 11.3431 44.8548 7.32912 44.43C5.14161 44.1964 3.78238 42.9009 3.48504 40.7558C3.46381 40.6072 3.37885 40.3523 3.27266 40.3098C1.786 39.7576 1.0002 38.6108 0.554199 37.1666C0.575437 25.9742 0.575437 14.718 0.575437 3.4619ZM2.59305 15.249C2.59305 15.5038 2.59305 15.7162 2.59305 15.9074C2.59305 22.6186 2.59305 29.3298 2.59305 36.041C2.59305 37.8037 3.31514 38.5258 5.07789 38.5258C20.2843 38.5258 35.5119 38.5258 50.7184 38.5258C52.4386 38.5258 53.182 37.7825 53.182 36.0835C53.182 29.351 53.182 22.6186 53.182 15.8861C53.182 15.6738 53.182 15.4614 53.182 15.249C36.2765 15.249 19.4773 15.249 2.59305 15.249ZM55.2208 10.874C55.2208 11.1713 55.2208 11.4261 55.2208 11.681C55.2208 19.7727 55.2421 27.8856 55.1996 35.9773C55.1996 36.7206 55.0721 37.5489 54.7748 38.2285C54.0102 39.9275 52.5661 40.5647 50.7396 40.5647C35.9367 40.5434 21.1338 40.5647 6.33094 40.5647C6.07608 40.5647 5.84246 40.5647 5.5876 40.5647C5.79999 41.7115 6.39465 42.285 7.49902 42.4124C8.98568 42.6035 10.4723 42.7522 11.9802 42.9221C15.9942 43.3681 20.0294 43.8353 24.0434 44.2813C28.0574 44.7273 32.0926 45.1946 36.1066 45.6406C39.8445 46.0653 43.5611 46.4901 47.299 46.9148C49.4865 47.1697 51.6528 47.4246 53.8403 47.6582C55.1359 47.7856 56.0703 47.0423 56.219 45.7468C56.3252 44.8123 56.4101 43.8991 56.4951 42.9646C56.8774 38.9294 57.2597 34.8941 57.6207 30.8377C57.9605 27.206 58.3003 23.5955 58.6401 19.9638C58.8525 17.7338 59.0649 15.5038 59.256 13.2739C59.341 12.1907 58.7038 11.235 57.7481 11.0863C56.9411 10.9802 56.1128 10.9589 55.2208 10.874ZM53.1607 7.17855C36.2765 7.17855 19.456 7.17855 2.65676 7.17855C2.65676 9.2174 2.65676 11.1925 2.65676 13.1677C19.5197 13.1677 36.319 13.1677 53.1607 13.1677C53.1607 11.1713 53.1607 9.19616 53.1607 7.17855ZM53.1395 5.05475C53.4368 3.05838 52.4599 2.01772 50.5697 2.01772C35.3845 2.06019 20.2206 2.03895 5.03542 2.03895C3.20895 2.03895 2.29572 3.22828 2.69924 5.05475C19.4773 5.05475 36.2978 5.05475 53.1395 5.05475Z" fill="white"/>
<path d="M41.0338 34.4906C38.4428 34.4906 35.8518 34.4906 33.282 34.4906C32.2625 34.4906 31.944 34.1933 31.944 33.1526C31.944 30.3492 31.944 27.5246 31.944 24.7212C31.944 23.6593 32.2625 23.3407 33.3244 23.3407C38.4853 23.3407 43.6249 23.3407 48.7857 23.3407C49.8476 23.3407 50.1662 23.6593 50.1662 24.7212C50.1662 27.5246 50.1662 30.3492 50.1662 33.1526C50.1662 34.1933 49.8688 34.4906 48.8282 34.4906C46.2159 34.4906 43.6249 34.4906 41.0338 34.4906ZM33.9828 32.4093C38.7189 32.4093 43.3913 32.4093 48.0636 32.4093C48.0636 30.0307 48.0636 27.7157 48.0636 25.3795C43.3488 25.3795 38.6764 25.3795 33.9828 25.3795C33.9828 27.7369 33.9828 30.0519 33.9828 32.4093Z" fill="white"/>
<path d="M12.1289 25.3583C10.0264 25.3583 7.90255 25.3583 5.79999 25.3583C5.2478 25.3583 4.82304 25.2096 4.67438 24.615C4.52571 24.0415 4.82304 23.5318 5.39647 23.3832C5.63009 23.3407 5.8637 23.3194 6.09732 23.3194C10.175 23.3194 14.2315 23.3194 18.3092 23.3194C18.3729 23.3194 18.4366 23.3194 18.4791 23.3194C19.3711 23.3407 19.7958 23.6593 19.7958 24.3389C19.7958 25.0185 19.3711 25.3371 18.4791 25.3371C16.3553 25.3583 14.2527 25.3583 12.1289 25.3583Z" fill="white"/>
<path d="M9.68657 21.3018C8.41229 21.3018 7.11677 21.3018 5.84249 21.3018C5.05669 21.3018 4.63193 20.9408 4.63193 20.3037C4.63193 19.6665 5.05669 19.2842 5.84249 19.2842C8.41229 19.2842 10.9821 19.2842 13.5519 19.2842C14.3377 19.2842 14.7412 19.6453 14.7412 20.3037C14.7412 20.962 14.3589 21.3018 13.5519 21.3018C12.2564 21.3018 10.9609 21.3018 9.68657 21.3018Z" fill="white"/>
<path d="M21.771 21.3018C20.4967 21.3018 19.2437 21.3018 17.9694 21.3018C17.1623 21.3018 16.7801 20.962 16.7588 20.3036C16.7588 19.624 17.1623 19.263 17.9906 19.263C20.5392 19.263 23.0877 19.263 25.6363 19.263C26.4221 19.263 26.8469 19.624 26.8469 20.2612C26.8681 20.9195 26.4221 21.2806 25.5938 21.2806C24.3408 21.3018 23.0665 21.3018 21.771 21.3018Z" fill="white"/>
<path d="M24.3408 25.337C23.8098 25.337 23.2789 25.3582 22.7479 25.337C22.1745 25.3158 21.8347 24.9335 21.8135 24.3813C21.7922 23.8716 22.1108 23.4043 22.6205 23.3831C23.7674 23.3406 24.893 23.3406 26.0398 23.3831C26.592 23.4043 26.8469 23.8503 26.8469 24.3813C26.8469 24.9335 26.4858 25.3158 25.9336 25.337C25.4239 25.3582 24.8717 25.337 24.3408 25.337Z" fill="white"/>
</svg>
